# xmcd
#
# Track frame offsets: 
#        150
#        7419
#        20733
#        36628
#        56567
#        69954
#        91873
#        109781
#        128671
#        142508
#        161840
#        179180
#        189762
#        207957
#        225048
#        246416
#        266054
#        289229
#        303442
#        317818
#
# Disc length: 4479 seconds
#
# Revision: 0
# Processed by: cddbd v1.5.2PL0 Copyright (c) Steve Scherf et al.
# Submitted via: ExactAudioCopy v0.95b4
#
DISCID=20117d14
DTITLE=Various Artist - Start Your Own Country
DYEAR=2005
DGENRE=Country
TTITLE0=Young, Roger Dean and The Tin Cup - Stettler
TTITLE1=Old Reliable - No Unmaking
TTITLE2=Ketchen, Steve and The Kensington Hillbillys - Straight To Hell
TTITLE3=Two Gallants - Nothing To You
TTITLE4=Only Children, The - Sky Begins To Storm
TTITLE5=Rutledge, Justin and The Junction Forty - Too Sober To Sleep
TTITLE6=March, Augie - Little Wonder
TTITLE7=By The Fireside - Battle Fields
TTITLE8=Idaho Falls, The - Country Song
TTITLE9=Charlemagne - Angel Of The Morning
TTITLE10=Bryson, Jim - Somewhere Else
TTITLE11=Langhorne Slim - Loretta Lee Jones
TTITLE12=Pink Mountaintops, The - Sweet '69
TTITLE13=OX - Surrender
TTITLE14=Reilly, Megan - On A Plane
TTITLE15=Parker, Anders - Feel The Same
TTITLE16=Molina, Jasen - Division St. Girl
TTITLE17=Elephant Micah - Dream Feedback
TTITLE18=Blood Meridian - Soldiers Of Christ
TTITLE19=Parkas, The - Start Your Own Country
EXTD=
EXTT0=
EXTT1=
EXTT2=
EXTT3=
EXTT4=
EXTT5=
EXTT6=
EXTT7=
EXTT8=
EXTT9=
EXTT10=
EXTT11=
EXTT12=
EXTT13=
EXTT14=
EXTT15=
EXTT16=
EXTT17=
EXTT18=
EXTT19=
PLAYORDER=
